# xmcd
#
# Track frame offsets: 
#        182
#        9542
#        28297
#        39717
#        49370
#        62420
#        74197
#        90982
#        104642
#        116720
#        128280
#        139972
#        150695
#        160810
#        177390
#        186847
#        201430
#        214522
#        225775
#        239345
#
# Disc length: 3384 seconds
#
# Revision: 0
# Processed by: cddbd v1.5.1PL2 Copyright (c) Steve Scherf et al.
# Submitted via: ExactAudioCopy v0.95a5
#
DISCID=1d0d3614
DTITLE=J. D. Sumner and The Stamps - 20 Southern Gospel Favorites
DYEAR=1993
DGENRE=Gospel
TTITLE0=Crown Him King
TTITLE1=Where The Roses Never Fade
TTITLE2=We'll Soon Be Done With Troubles
TTITLE3=He Bore It All
TTITLE4=There's A Little Pine Log Cabin
TTITLE5=In The Sweet Forever
TTITLE6=I'd Rather Have Jesus
TTITLE7=He Is Mine And I Am His
TTITLE8=Hold To God's Unchanging Hand
TTITLE9=In The Sweet By And By
TTITLE10=I'll Meet You By The River
TTITLE11=When We Sing Around The Throne Eternal
TTITLE12=Go Right Out
TTITLE13=Did You Ever Go Sailin'
TTITLE14=Waiting For His Return
TTITLE15=Going Home
TTITLE16=Sing Me A Song About Jesus
TTITLE17=I'll Have A New Life
TTITLE18=Waiting For The Call
TTITLE19=After Awhile
EXTD=
EXTT0=
EXTT1=
EXTT2=
EXTT3=
EXTT4=
EXTT5=
EXTT6=
EXTT7=
EXTT8=
EXTT9=
EXTT10=
EXTT11=
EXTT12=
EXTT13=
EXTT14=
EXTT15=
EXTT16=
EXTT17=
EXTT18=
EXTT19=
PLAYORDER=
